# xmcd CD database file
#
# Track frame offsets:
#	150
#	54730
#	92787
#	135117
#	154805
#	193772
#	236075
#	282637
#
# Disc length: 4394 seconds
#
# Revision: 3
# Processed by: cddbd v1.4PL0 Copyright (c) Steve Scherf et al.
# Submitted via: CDex 1.50Beta7
#
DISCID=70112808
DTITLE=Jay Stapley - Ambient Blue
DYEAR=2001
DGENRE=New Age
TTITLE0=Ambient Blue
TTITLE1=Loop E. Lou
TTITLE2=Delta Curve
TTITLE3=Sleepin'n'Slidin
TTITLE4=Krazekate
TTITLE5=The Lump
TTITLE6=Slow Lane
TTITLE7=Blue Wail
EXTD=YEAR: 2001
EXTT0=
EXTT1=
EXTT2=
EXTT3=
EXTT4=
EXTT5=
EXTT6=
EXTT7=
PLAYORDER=
